<svg width="24" height="22" viewBox="0 0 24 22" fill="none" xmlns="http://www.w3.org/2000/svg">
<path d="M23.9999 11C23.9999 11.2652 23.8946 11.5196 23.7071 11.7071C23.5195 11.8947 23.2652 12 22.9999 12H11.9999C11.7347 12 11.4804 11.8947 11.2928 11.7071C11.1053 11.5196 10.9999 11.2652 10.9999 11C10.9999 10.7348 11.1053 10.4804 11.2928 10.2929C11.4804 10.1054 11.7347 10 11.9999 10H22.9999C23.2652 10 23.5195 10.1054 23.7071 10.2929C23.8946 10.4804 23.9999 10.7348 23.9999 11ZM11.9999 4.00001H22.9999C23.2652 4.00001 23.5195 3.89465 23.7071 3.70711C23.8946 3.51958 23.9999 3.26522 23.9999 3.00001C23.9999 2.73479 23.8946 2.48044 23.7071 2.2929C23.5195 2.10536 23.2652 2.00001 22.9999 2.00001H11.9999C11.7347 2.00001 11.4804 2.10536 11.2928 2.2929C11.1053 2.48044 10.9999 2.73479 10.9999 3.00001C10.9999 3.26522 11.1053 3.51958 11.2928 3.70711C11.4804 3.89465 11.7347 4.00001 11.9999 4.00001ZM22.9999 18H11.9999C11.7347 18 11.4804 18.1054 11.2928 18.2929C11.1053 18.4804 10.9999 18.7348 10.9999 19C10.9999 19.2652 11.1053 19.5196 11.2928 19.7071C11.4804 19.8947 11.7347 20 11.9999 20H22.9999C23.2652 20 23.5195 19.8947 23.7071 19.7071C23.8946 19.5196 23.9999 19.2652 23.9999 19C23.9999 18.7348 23.8946 18.4804 23.7071 18.2929C23.5195 18.1054 23.2652 18 22.9999 18ZM6.29245 0.292507L2.99995 3.58626L1.70745 2.29251C1.5198 2.10487 1.26531 1.99945 0.999946 1.99945C0.734582 1.99945 0.480086 2.10487 0.292446 2.29251C0.104805 2.48015 -0.00061035 2.73464 -0.000610352 3.00001C-0.000610354 3.26537 0.104805 3.51987 0.292446 3.70751L2.29245 5.70751C2.38532 5.80048 2.49561 5.87424 2.61701 5.92457C2.7384 5.97489 2.86853 6.00079 2.99995 6.00079C3.13136 6.00079 3.26149 5.97489 3.38289 5.92457C3.50428 5.87424 3.61457 5.80048 3.70745 5.70751L7.70745 1.70751C7.89509 1.51987 8.0005 1.26537 8.0005 1.00001C8.0005 0.734643 7.89509 0.480147 7.70745 0.292507C7.51981 0.104866 7.26531 -0.000549316 6.99995 -0.000549316C6.73458 -0.000549316 6.48009 0.104866 6.29245 0.292507ZM6.29245 8.29251L2.99995 11.5863L1.70745 10.2925C1.5198 10.1049 1.26531 9.99945 0.999946 9.99945C0.734582 9.99945 0.480086 10.1049 0.292446 10.2925C0.104805 10.4801 -0.000610352 10.7346 -0.000610352 11C-0.000610352 11.1314 0.0252698 11.2615 0.0755525 11.3829C0.125835 11.5043 0.199535 11.6146 0.292446 11.7075L2.29245 13.7075C2.38532 13.8005 2.49561 13.8742 2.61701 13.9246C2.7384 13.9749 2.86853 14.0008 2.99995 14.0008C3.13136 14.0008 3.26149 13.9749 3.38289 13.9246C3.50428 13.8742 3.61457 13.8005 3.70745 13.7075L7.70745 9.70751C7.89509 9.51987 8.0005 9.26537 8.0005 9.00001C8.0005 8.73464 7.89509 8.48015 7.70745 8.29251C7.51981 8.10487 7.26531 7.99945 6.99995 7.99945C6.73458 7.99945 6.48009 8.10487 6.29245 8.29251ZM6.29245 16.2925L2.99995 19.5863L1.70745 18.2925C1.61454 18.1996 1.50424 18.1259 1.38284 18.0756C1.26145 18.0253 1.13134 17.9995 0.999946 17.9995C0.868551 17.9995 0.738442 18.0253 0.617049 18.0756C0.495656 18.1259 0.385356 18.1996 0.292446 18.2925C0.199535 18.3854 0.125835 18.4957 0.0755525 18.6171C0.0252698 18.7385 -0.000610352 18.8686 -0.000610352 19C-0.000610352 19.1314 0.0252698 19.2615 0.0755525 19.3829C0.125835 19.5043 0.199535 19.6146 0.292446 19.7075L2.29245 21.7075C2.38532 21.8005 2.49561 21.8742 2.61701 21.9246C2.7384 21.9749 2.86853 22.0008 2.99995 22.0008C3.13136 22.0008 3.26149 21.9749 3.38289 21.9246C3.50428 21.8742 3.61457 21.8005 3.70745 21.7075L7.70745 17.7075C7.89509 17.5199 8.0005 17.2654 8.0005 17C8.0005 16.7346 7.89509 16.4801 7.70745 16.2925C7.51981 16.1049 7.26531 15.9994 6.99995 15.9994C6.73458 15.9994 6.48009 16.1049 6.29245 16.2925Z" fill="#7D8088"/>
</svg>
