<svg width="224" height="64" viewBox="0 0 224 64" fill="none" xmlns="http://www.w3.org/2000/svg">
<path d="M44 31.9999C44 32.2652 43.8947 32.5195 43.7071 32.7071C43.5196 32.8946 43.2652 32.9999 43 32.9999H32C31.7348 32.9999 31.4804 32.8946 31.2929 32.7071C31.1054 32.5195 31 32.2652 31 31.9999C31 31.7347 31.1054 31.4804 31.2929 31.2928C31.4804 31.1053 31.7348 30.9999 32 30.9999H43C43.2652 30.9999 43.5196 31.1053 43.7071 31.2928C43.8947 31.4804 44 31.7347 44 31.9999ZM32 24.9999H43C43.2652 24.9999 43.5196 24.8946 43.7071 24.7071C43.8947 24.5195 44 24.2652 44 23.9999C44 23.7347 43.8947 23.4804 43.7071 23.2928C43.5196 23.1053 43.2652 22.9999 43 22.9999H32C31.7348 22.9999 31.4804 23.1053 31.2929 23.2928C31.1054 23.4804 31 23.7347 31 23.9999C31 24.2652 31.1054 24.5195 31.2929 24.7071C31.4804 24.8946 31.7348 24.9999 32 24.9999ZM43 38.9999H32C31.7348 38.9999 31.4804 39.1053 31.2929 39.2928C31.1054 39.4804 31 39.7347 31 39.9999C31 40.2652 31.1054 40.5195 31.2929 40.7071C31.4804 40.8946 31.7348 40.9999 32 40.9999H43C43.2652 40.9999 43.5196 40.8946 43.7071 40.7071C43.8947 40.5195 44 40.2652 44 39.9999C44 39.7347 43.8947 39.4804 43.7071 39.2928C43.5196 39.1053 43.2652 38.9999 43 38.9999ZM26.2925 21.2924L23 24.5862L21.7075 23.2924C21.5199 23.1048 21.2654 22.9994 21 22.9994C20.7346 22.9994 20.4801 23.1048 20.2925 23.2924C20.1049 23.4801 19.9995 23.7346 19.9995 23.9999C19.9995 24.2653 20.1049 24.5198 20.2925 24.7074L22.2925 26.7074C22.3854 26.8004 22.4957 26.8742 22.6171 26.9245C22.7385 26.9748 22.8686 27.0007 23 27.0007C23.1314 27.0007 23.2615 26.9748 23.3829 26.9245C23.5043 26.8742 23.6146 26.8004 23.7075 26.7074L27.7075 22.7074C27.8951 22.5198 28.0006 22.2653 28.0006 21.9999C28.0006 21.7346 27.8951 21.4801 27.7075 21.2924C27.5199 21.1048 27.2654 20.9994 27 20.9994C26.7346 20.9994 26.4801 21.1048 26.2925 21.2924ZM26.2925 29.2924L23 32.5862L21.7075 31.2924C21.5199 31.1048 21.2654 30.9994 21 30.9994C20.7346 30.9994 20.4801 31.1048 20.2925 31.2924C20.1049 31.4801 19.9995 31.7346 19.9995 31.9999C19.9995 32.1313 20.0253 32.2614 20.0756 32.3828C20.1259 32.5042 20.1996 32.6145 20.2925 32.7074L22.2925 34.7074C22.3854 34.8004 22.4957 34.8742 22.6171 34.9245C22.7385 34.9748 22.8686 35.0007 23 35.0007C23.1314 35.0007 23.2615 34.9748 23.3829 34.9245C23.5043 34.8742 23.6146 34.8004 23.7075 34.7074L27.7075 30.7074C27.8951 30.5198 28.0006 30.2653 28.0006 29.9999C28.0006 29.7346 27.8951 29.4801 27.7075 29.2924C27.5199 29.1048 27.2654 28.9994 27 28.9994C26.7346 28.9994 26.4801 29.1048 26.2925 29.2924ZM26.2925 37.2924L23 40.5862L21.7075 39.2924C21.6146 39.1995 21.5043 39.1258 21.3829 39.0756C21.2615 39.0253 21.1314 38.9994 21 38.9994C20.8686 38.9994 20.7385 39.0253 20.6171 39.0756C20.4957 39.1258 20.3854 39.1995 20.2925 39.2924C20.1996 39.3854 20.1259 39.4957 20.0756 39.6171C20.0253 39.7384 19.9995 39.8686 19.9995 39.9999C19.9995 40.1313 20.0253 40.2614 20.0756 40.3828C20.1259 40.5042 20.1996 40.6145 20.2925 40.7074L22.2925 42.7074C22.3854 42.8004 22.4957 42.8742 22.6171 42.9245C22.7385 42.9748 22.8686 43.0007 23 43.0007C23.1314 43.0007 23.2615 42.9748 23.3829 42.9245C23.5043 42.8742 23.6146 42.8004 23.7075 42.7074L27.7075 38.7074C27.8951 38.5198 28.0006 38.2653 28.0006 37.9999C28.0006 37.7346 27.8951 37.4801 27.7075 37.2924C27.5199 37.1048 27.2654 36.9994 27 36.9994C26.7346 36.9994 26.4801 37.1048 26.2925 37.2924Z" fill="white"/>
<path d="M107 24C107 23.7348 107.105 23.4804 107.293 23.2929C107.48 23.1054 107.735 23 108 23H123C123.265 23 123.52 23.1054 123.707 23.2929C123.895 23.4804 124 23.7348 124 24C124 24.2652 123.895 24.5196 123.707 24.7071C123.52 24.8946 123.265 25 123 25H108C107.735 25 107.48 24.8946 107.293 24.7071C107.105 24.5196 107 24.2652 107 24ZM123 31H108C107.735 31 107.48 31.1054 107.293 31.2929C107.105 31.4804 107 31.7348 107 32C107 32.2652 107.105 32.5196 107.293 32.7071C107.48 32.8946 107.735 33 108 33H123C123.265 33 123.52 32.8946 123.707 32.7071C123.895 32.5196 124 32.2652 124 32C124 31.7348 123.895 31.4804 123.707 31.2929C123.52 31.1054 123.265 31 123 31ZM123 39H108C107.735 39 107.48 39.1054 107.293 39.2929C107.105 39.4804 107 39.7348 107 40C107 40.2652 107.105 40.5196 107.293 40.7071C107.48 40.8946 107.735 41 108 41H123C123.265 41 123.52 40.8946 123.707 40.7071C123.895 40.5196 124 40.2652 124 40C124 39.7348 123.895 39.4804 123.707 39.2929C123.52 39.1054 123.265 39 123 39ZM103 23H101C100.735 23 100.48 23.1054 100.293 23.2929C100.105 23.4804 100 23.7348 100 24C100 24.2652 100.105 24.5196 100.293 24.7071C100.48 24.8946 100.735 25 101 25H103C103.265 25 103.52 24.8946 103.707 24.7071C103.895 24.5196 104 24.2652 104 24C104 23.7348 103.895 23.4804 103.707 23.2929C103.52 23.1054 103.265 23 103 23ZM103 31H101C100.735 31 100.48 31.1054 100.293 31.2929C100.105 31.4804 100 31.7348 100 32C100 32.2652 100.105 32.5196 100.293 32.7071C100.48 32.8946 100.735 33 101 33H103C103.265 33 103.52 32.8946 103.707 32.7071C103.895 32.5196 104 32.2652 104 32C104 31.7348 103.895 31.4804 103.707 31.2929C103.52 31.1054 103.265 31 103 31ZM103 39H101C100.735 39 100.48 39.1054 100.293 39.2929C100.105 39.4804 100 39.7348 100 40C100 40.2652 100.105 40.5196 100.293 40.7071C100.48 40.8946 100.735 41 101 41H103C103.265 41 103.52 40.8946 103.707 40.7071C103.895 40.5196 104 40.2652 104 40C104 39.7348 103.895 39.4804 103.707 39.2929C103.52 39.1054 103.265 39 103 39Z" fill="white"/>
<path d="M186 24C186 23.7348 186.105 23.4804 186.293 23.2929C186.48 23.1054 186.735 23 187 23H203C203.265 23 203.52 23.1054 203.707 23.2929C203.895 23.4804 204 23.7348 204 24C204 24.2652 203.895 24.5196 203.707 24.7071C203.52 24.8946 203.265 25 203 25H187C186.735 25 186.48 24.8946 186.293 24.7071C186.105 24.5196 186 24.2652 186 24ZM203 31H187C186.735 31 186.48 31.1054 186.293 31.2929C186.105 31.4804 186 31.7348 186 32C186 32.2652 186.105 32.5196 186.293 32.7071C186.48 32.8946 186.735 33 187 33H203C203.265 33 203.52 32.8946 203.707 32.7071C203.895 32.5196 204 32.2652 204 32C204 31.7348 203.895 31.4804 203.707 31.2929C203.52 31.1054 203.265 31 203 31ZM203 39H187C186.735 39 186.48 39.1054 186.293 39.2929C186.105 39.4804 186 39.7348 186 40C186 40.2652 186.105 40.5196 186.293 40.7071C186.48 40.8946 186.735 41 187 41H203C203.265 41 203.52 40.8946 203.707 40.7071C203.895 40.5196 204 40.2652 204 40C204 39.7348 203.895 39.4804 203.707 39.2929C203.52 39.1054 203.265 39 203 39ZM181.5 22.5C181.203 22.5 180.913 22.588 180.667 22.7528C180.42 22.9176 180.228 23.1519 180.114 23.426C180.001 23.7001 179.971 24.0017 180.029 24.2926C180.087 24.5836 180.23 24.8509 180.439 25.0607C180.649 25.2704 180.916 25.4133 181.207 25.4712C181.498 25.5291 181.8 25.4994 182.074 25.3858C182.348 25.2723 182.582 25.08 182.747 24.8334C182.912 24.5867 183 24.2967 183 24C183 23.6022 182.842 23.2206 182.561 22.9393C182.279 22.658 181.898 22.5 181.5 22.5ZM181.5 30.5C181.203 30.5 180.913 30.588 180.667 30.7528C180.42 30.9176 180.228 31.1519 180.114 31.426C180.001 31.7001 179.971 32.0017 180.029 32.2926C180.087 32.5836 180.23 32.8509 180.439 33.0607C180.649 33.2704 180.916 33.4133 181.207 33.4712C181.498 33.5291 181.8 33.4993 182.074 33.3858C182.348 33.2723 182.582 33.08 182.747 32.8334C182.912 32.5867 183 32.2967 183 32C183 31.6022 182.842 31.2206 182.561 30.9393C182.279 30.658 181.898 30.5 181.5 30.5ZM181.5 38.5C181.203 38.5 180.913 38.588 180.667 38.7528C180.42 38.9176 180.228 39.1519 180.114 39.426C180.001 39.7001 179.971 40.0017 180.029 40.2926C180.087 40.5836 180.23 40.8509 180.439 41.0607C180.649 41.2704 180.916 41.4133 181.207 41.4712C181.498 41.5291 181.8 41.4993 182.074 41.3858C182.348 41.2723 182.582 41.08 182.747 40.8334C182.912 40.5867 183 40.2967 183 40C183 39.6022 182.842 39.2206 182.561 38.9393C182.279 38.658 181.898 38.5 181.5 38.5Z" fill="white"/>
<rect x="0.5" y="0.5" width="223" height="63" rx="4.5" stroke="#9747FF" stroke-dasharray="10 5"/>
</svg>
