<svg width="304" height="64" viewBox="0 0 304 64" fill="none" xmlns="http://www.w3.org/2000/svg">
<path d="M33.5 32C33.5 32.2967 33.412 32.5867 33.2472 32.8334C33.0824 33.08 32.8481 33.2723 32.574 33.3858C32.2999 33.4993 31.9983 33.5291 31.7074 33.4712C31.4164 33.4133 31.1491 33.2704 30.9393 33.0607C30.7296 32.8509 30.5867 32.5836 30.5288 32.2926C30.4709 32.0017 30.5007 31.7001 30.6142 31.426C30.7277 31.1519 30.92 30.9176 31.1666 30.7528C31.4133 30.588 31.7033 30.5 32 30.5C32.3978 30.5 32.7794 30.658 33.0607 30.9393C33.342 31.2206 33.5 31.6022 33.5 32ZM40.5 30.5C40.2033 30.5 39.9133 30.588 39.6666 30.7528C39.42 30.9176 39.2277 31.1519 39.1142 31.426C39.0007 31.7001 38.9709 32.0017 39.0288 32.2926C39.0867 32.5836 39.2296 32.8509 39.4393 33.0607C39.6491 33.2704 39.9164 33.4133 40.2074 33.4712C40.4983 33.5291 40.7999 33.4993 41.074 33.3858C41.3481 33.2723 41.5824 33.08 41.7472 32.8334C41.912 32.5867 42 32.2967 42 32C42 31.6022 41.842 31.2206 41.5607 30.9393C41.2794 30.658 40.8978 30.5 40.5 30.5ZM23.5 30.5C23.2033 30.5 22.9133 30.588 22.6666 30.7528C22.42 30.9176 22.2277 31.1519 22.1142 31.426C22.0006 31.7001 21.9709 32.0017 22.0288 32.2926C22.0867 32.5836 22.2296 32.8509 22.4393 33.0607C22.6491 33.2704 22.9164 33.4133 23.2074 33.4712C23.4983 33.5291 23.7999 33.4993 24.074 33.3858C24.3481 33.2723 24.5824 33.08 24.7472 32.8334C24.912 32.5867 25 32.2967 25 32C25 31.6022 24.842 31.2206 24.5607 30.9393C24.2794 30.658 23.8978 30.5 23.5 30.5Z" fill="black"/>
<path d="M113.5 32C113.5 32.2967 113.412 32.5867 113.247 32.8334C113.082 33.08 112.848 33.2723 112.574 33.3858C112.3 33.4994 111.998 33.5291 111.707 33.4712C111.416 33.4133 111.149 33.2704 110.939 33.0607C110.73 32.8509 110.587 32.5836 110.529 32.2926C110.471 32.0017 110.501 31.7001 110.614 31.426C110.728 31.1519 110.92 30.9176 111.167 30.7528C111.413 30.588 111.703 30.5 112 30.5C112.398 30.5 112.779 30.658 113.061 30.9393C113.342 31.2206 113.5 31.6022 113.5 32ZM112 25C112.297 25 112.587 24.912 112.833 24.7472C113.08 24.5824 113.272 24.3481 113.386 24.074C113.499 23.7999 113.529 23.4983 113.471 23.2074C113.413 22.9164 113.27 22.6491 113.061 22.4393C112.851 22.2296 112.584 22.0867 112.293 22.0288C112.002 21.9709 111.7 22.0006 111.426 22.1142C111.152 22.2277 110.918 22.42 110.753 22.6666C110.588 22.9133 110.5 23.2033 110.5 23.5C110.5 23.8978 110.658 24.2794 110.939 24.5607C111.221 24.842 111.602 25 112 25ZM112 39C111.703 39 111.413 39.088 111.167 39.2528C110.92 39.4176 110.728 39.6519 110.614 39.926C110.501 40.2001 110.471 40.5017 110.529 40.7926C110.587 41.0836 110.73 41.3509 110.939 41.5607C111.149 41.7704 111.416 41.9133 111.707 41.9712C111.998 42.0291 112.3 41.9993 112.574 41.8858C112.848 41.7723 113.082 41.58 113.247 41.3334C113.412 41.0867 113.5 40.7967 113.5 40.5C113.5 40.1022 113.342 39.7206 113.061 39.4393C112.779 39.158 112.398 39 112 39Z" fill="black"/>
<path d="M192 28C191.209 28 190.436 28.2346 189.778 28.6741C189.12 29.1136 188.607 29.7384 188.304 30.4693C188.002 31.2002 187.923 32.0044 188.077 32.7804C188.231 33.5563 188.612 34.269 189.172 34.8284C189.731 35.3878 190.444 35.7688 191.22 35.9231C191.996 36.0775 192.8 35.9983 193.531 35.6955C194.262 35.3928 194.886 34.8801 195.326 34.2223C195.765 33.5645 196 32.7911 196 32C196 30.9391 195.579 29.9217 194.828 29.1716C194.078 28.4214 193.061 28 192 28ZM192 34C191.604 34 191.218 33.8827 190.889 33.6629C190.56 33.4432 190.304 33.1308 190.152 32.7654C190.001 32.3999 189.961 31.9978 190.038 31.6098C190.116 31.2219 190.306 30.8655 190.586 30.5858C190.865 30.3061 191.222 30.1156 191.61 30.0384C191.998 29.9613 192.4 30.0009 192.765 30.1522C193.131 30.3036 193.443 30.56 193.663 30.8889C193.883 31.2178 194 31.6044 194 32C194 32.5304 193.789 33.0391 193.414 33.4142C193.039 33.7893 192.53 34 192 34ZM182 28C181.209 28 180.436 28.2346 179.778 28.6741C179.12 29.1136 178.607 29.7384 178.304 30.4693C178.002 31.2002 177.923 32.0044 178.077 32.7804C178.231 33.5563 178.612 34.269 179.172 34.8284C179.731 35.3878 180.444 35.7688 181.22 35.9231C181.996 36.0775 182.8 35.9983 183.531 35.6955C184.262 35.3928 184.886 34.8801 185.326 34.2223C185.765 33.5645 186 32.7911 186 32C186 30.9391 185.579 29.9217 184.828 29.1716C184.078 28.4214 183.061 28 182 28ZM182 34C181.604 34 181.218 33.8827 180.889 33.6629C180.56 33.4432 180.304 33.1308 180.152 32.7654C180.001 32.3999 179.961 31.9978 180.038 31.6098C180.116 31.2219 180.306 30.8655 180.586 30.5858C180.865 30.3061 181.222 30.1156 181.61 30.0384C181.998 29.9613 182.4 30.0009 182.765 30.1522C183.131 30.3036 183.443 30.56 183.663 30.8889C183.883 31.2178 184 31.6044 184 32C184 32.5304 183.789 33.0391 183.414 33.4142C183.039 33.7893 182.53 34 182 34ZM202 28C201.209 28 200.436 28.2346 199.778 28.6741C199.12 29.1136 198.607 29.7384 198.304 30.4693C198.002 31.2002 197.923 32.0044 198.077 32.7804C198.231 33.5563 198.612 34.269 199.172 34.8284C199.731 35.3878 200.444 35.7688 201.22 35.9231C201.996 36.0775 202.8 35.9983 203.531 35.6955C204.262 35.3928 204.886 34.8801 205.326 34.2223C205.765 33.5645 206 32.7911 206 32C206 30.9391 205.579 29.9217 204.828 29.1716C204.078 28.4214 203.061 28 202 28ZM202 34C201.604 34 201.218 33.8827 200.889 33.6629C200.56 33.4432 200.304 33.1308 200.152 32.7654C200.001 32.3999 199.961 31.9978 200.038 31.6098C200.116 31.2219 200.306 30.8655 200.586 30.5858C200.865 30.3061 201.222 30.1156 201.61 30.0384C201.998 29.9613 202.4 30.0009 202.765 30.1522C203.131 30.3036 203.443 30.56 203.663 30.8889C203.883 31.2178 204 31.6044 204 32C204 32.5304 203.789 33.0391 203.414 33.4142C203.039 33.7893 202.53 34 202 34Z" fill="black"/>
<path d="M272 28C271.209 28 270.436 28.2346 269.778 28.6741C269.12 29.1136 268.607 29.7384 268.304 30.4693C268.002 31.2002 267.923 32.0044 268.077 32.7804C268.231 33.5563 268.612 34.269 269.172 34.8284C269.731 35.3878 270.444 35.7688 271.22 35.9231C271.996 36.0775 272.8 35.9983 273.531 35.6955C274.262 35.3928 274.886 34.8801 275.326 34.2223C275.765 33.5645 276 32.7911 276 32C276 30.9391 275.579 29.9217 274.828 29.1716C274.078 28.4214 273.061 28 272 28ZM272 34C271.604 34 271.218 33.8827 270.889 33.6629C270.56 33.4432 270.304 33.1308 270.152 32.7654C270.001 32.3999 269.961 31.9978 270.038 31.6098C270.116 31.2219 270.306 30.8655 270.586 30.5858C270.865 30.3061 271.222 30.1156 271.61 30.0384C271.998 29.9613 272.4 30.0009 272.765 30.1522C273.131 30.3036 273.443 30.56 273.663 30.8889C273.883 31.2178 274 31.6044 274 32C274 32.5304 273.789 33.0391 273.414 33.4142C273.039 33.7893 272.53 34 272 34ZM272 26C272.791 26 273.564 25.7654 274.222 25.3259C274.88 24.8864 275.393 24.2616 275.696 23.5307C275.998 22.7998 276.077 21.9956 275.923 21.2196C275.769 20.4437 275.388 19.731 274.828 19.1716C274.269 18.6122 273.556 18.2312 272.78 18.0769C272.004 17.9225 271.2 18.0017 270.469 18.3045C269.738 18.6072 269.114 19.1199 268.674 19.7777C268.235 20.4355 268 21.2089 268 22C268 23.0609 268.421 24.0783 269.172 24.8284C269.922 25.5786 270.939 26 272 26ZM272 20C272.396 20 272.782 20.1173 273.111 20.3371C273.44 20.5568 273.696 20.8692 273.848 21.2346C273.999 21.6001 274.039 22.0022 273.962 22.3902C273.884 22.7781 273.694 23.1345 273.414 23.4142C273.135 23.6939 272.778 23.8844 272.39 23.9616C272.002 24.0387 271.6 23.9991 271.235 23.8478C270.869 23.6964 270.557 23.44 270.337 23.1111C270.117 22.7822 270 22.3956 270 22C270 21.4696 270.211 20.9609 270.586 20.5858C270.961 20.2107 271.47 20 272 20ZM272 38C271.209 38 270.436 38.2346 269.778 38.6741C269.12 39.1136 268.607 39.7384 268.304 40.4693C268.002 41.2002 267.923 42.0044 268.077 42.7804C268.231 43.5563 268.612 44.269 269.172 44.8284C269.731 45.3878 270.444 45.7688 271.22 45.9231C271.996 46.0775 272.8 45.9983 273.531 45.6955C274.262 45.3928 274.886 44.8801 275.326 44.2223C275.765 43.5645 276 42.7911 276 42C276 40.9391 275.579 39.9217 274.828 39.1716C274.078 38.4214 273.061 38 272 38ZM272 44C271.604 44 271.218 43.8827 270.889 43.6629C270.56 43.4432 270.304 43.1308 270.152 42.7654C270.001 42.3999 269.961 41.9978 270.038 41.6098C270.116 41.2219 270.306 40.8655 270.586 40.5858C270.865 40.3061 271.222 40.1156 271.61 40.0384C271.998 39.9613 272.4 40.0009 272.765 40.1522C273.131 40.3036 273.443 40.56 273.663 40.8889C273.883 41.2178 274 41.6044 274 42C274 42.5304 273.789 43.0391 273.414 43.4142C273.039 43.7893 272.53 44 272 44Z" fill="black"/>
<rect x="0.5" y="0.5" width="303" height="63" rx="4.5" stroke="#9747FF" stroke-dasharray="10 5"/>
</svg>
